
<svg width="133px" height="47px" viewBox="0 0 133 47" version="1.1" xmlns="http://www.w3.org/2000/svg" xmlns:xlink="http://www.w3.org/1999/xlink">
    <!-- Generator: Sketch 45.2 (43514) - http://www.bohemiancoding.com/sketch -->
    <desc>Created with Sketch.</desc>
    <defs></defs>
    <g id="Page-1" stroke="none" stroke-width="1" fill="none" fill-rule="evenodd">
        <path d="M133.008,25.256 C131.429992,27.0093421 129.413679,29.1133211 126.959,31.568 C124.504321,34.0226789 121.655183,36.3458224 118.4115,38.5375 C115.167817,40.7291776 111.529687,42.6139921 107.497,44.192 C103.464313,45.7700079 99.0810237,46.559 94.347,46.559 C89.7883105,46.559 85.4488539,45.7700079 81.3285,44.192 C77.2081461,42.6139921 72.5180263,40.5976789 67.258,38.143 C60.5953,34.81165 55.2915197,32.3570079 51.3465,30.779 C47.4014803,29.2009921 43.4126868,28.412 39.38,28.412 C36.7499868,28.412 34.4268434,28.7188303 32.4105,29.3325 C30.3941566,29.9461697 28.4655092,30.9543263 26.6245,32.357 C24.7834908,33.7596737 22.8110105,35.6006553 20.707,37.88 C18.6029895,40.1593447 16.1483474,42.96465 13.343,46.296 L0.719,23.415 C1.77100526,22.0123263 3.26132369,19.9960131 5.19,17.366 C7.11867631,14.7359869 9.66098422,12.149846 12.817,9.6075 C15.9730158,7.06515395 19.6988119,4.82967631 23.9945,2.901 C28.2901881,0.97232369 33.2433053,0.008 38.854,0.008 C43.7633579,0.008 48.2781461,0.753159215 52.3985,2.2435 C56.5188539,3.73384078 61.3843053,5.79398685 66.995,8.424 C71.203021,10.3526763 74.7096526,11.9306605 77.515,13.158 C80.3203474,14.3853395 82.7311566,15.3934961 84.7475,16.1825 C86.7638434,16.9715039 88.5609921,17.4974987 90.139,17.7605 C91.7170079,18.0235013 93.3826579,18.155 95.136,18.155 C100.571361,18.155 105.392979,16.4455171 109.601,13.0265 C113.809021,9.6074829 117.57865,5.88168683 120.91,1.849 L133.008,25.256 Z" id="~-copy" fill="#000000"></path>
    </g>
</svg>