<?xml version="1.0" encoding="utf-8"?>
<!-- Generator: Adobe Illustrator 24.1.0, SVG Export Plug-In . SVG Version: 6.00 Build 0)  -->
<svg version="1.1" id="Layer_1" xmlns="http://www.w3.org/2000/svg" xmlns:xlink="http://www.w3.org/1999/xlink" x="0px" y="0px"
	 viewBox="0 0 500 500" style="enable-background:new 0 0 500 500;" xml:space="preserve">
<style type="text/css">
	.st0{fill:#F9927F;}
	.st1{fill:#E1F4F6;}
	.st2{fill:#F4F4F4;}
	.st3{fill:#FEBB74;}
	.st4{fill:#032642;}
	.st5{fill:#1F8FCA;}
	.st6{fill:#8580BB;}
	.st7{fill:#167279;}
	.st8{fill:none;stroke:#032642;stroke-width:6;stroke-linecap:round;stroke-linejoin:round;stroke-miterlimit:10;}
	.st9{fill:none;stroke:#167279;stroke-width:6;stroke-linecap:round;stroke-linejoin:round;stroke-miterlimit:10;}
	.st10{fill:none;stroke:#1F8FCA;stroke-width:6;stroke-linecap:round;stroke-linejoin:round;stroke-miterlimit:10;}
	.st11{fill:none;stroke:#F9927F;stroke-width:6;stroke-linecap:round;stroke-linejoin:round;stroke-miterlimit:10;}
	.st12{fill:none;stroke:#8580BB;stroke-width:6;stroke-linecap:round;stroke-linejoin:round;stroke-miterlimit:10;}
</style>
<g>
	<path class="st4" d="M250,9c32.54,0,64.1,6.37,93.81,18.94c28.7,12.14,54.47,29.52,76.61,51.65
		c22.14,22.14,39.51,47.91,51.65,76.61C484.63,185.9,491,217.46,491,250s-6.37,64.1-18.94,93.81
		c-12.14,28.7-29.52,54.47-51.65,76.61c-22.13,22.14-47.91,39.51-76.61,51.65C314.1,484.63,282.54,491,250,491
		s-64.1-6.37-93.81-18.94c-28.7-12.14-54.47-29.52-76.61-51.65c-22.14-22.14-39.51-47.91-51.65-76.61C15.37,314.1,9,282.54,9,250
		s6.37-64.1,18.94-93.81c12.14-28.7,29.52-54.47,51.65-76.61c22.13-22.14,47.91-39.51,76.61-51.65C185.9,15.37,217.46,9,250,9
		 M250,3C113.59,3,3,113.59,3,250s110.59,247,247,247s247-110.59,247-247S386.41,3,250,3L250,3z"/>
</g>
</svg>
