<?xml version="1.0" encoding="utf-8"?>
<!-- Generator: Adobe Illustrator 24.1.0, SVG Export Plug-In . SVG Version: 6.00 Build 0)  -->
<svg version="1.1" id="Layer_1" xmlns="http://www.w3.org/2000/svg" xmlns:xlink="http://www.w3.org/1999/xlink" x="0px" y="0px"
	 viewBox="0 0 500 500" style="enable-background:new 0 0 500 500;" xml:space="preserve">
<style type="text/css">
	.st0{fill:#F9927F;}
	.st1{fill:#E1F4F6;}
	.st2{fill:#F4F4F4;}
	.st3{fill:#FEBB74;}
	.st4{fill:#032642;}
	.st5{fill:#1F8FCA;}
	.st6{fill:#8580BB;}
	.st7{fill:#167279;}
	.st8{opacity:0.3;}
	.st9{fill:#FFFFFF;}
	.st10{opacity:0.3;fill:#FFFFFF;stroke:#032642;stroke-width:2;stroke-linecap:round;stroke-linejoin:round;stroke-miterlimit:10;}
</style>
<g class="st8">
	<path class="st9" d="M250,496c-65.71,0-127.48-25.59-173.95-72.05S4,315.71,4,250S29.59,122.51,76.05,76.05S184.29,4,250,4
		s127.48,25.59,173.95,72.05S496,184.29,496,250s-25.59,127.49-72.05,173.95S315.71,496,250,496z"/>
	<path class="st4" d="M250,5c33.08,0,65.16,6.48,95.36,19.25c29.17,12.34,55.38,30.01,77.88,52.51c22.5,22.5,40.17,48.7,52.51,77.88
		C488.52,184.84,495,216.92,495,250s-6.48,65.16-19.25,95.36c-12.34,29.17-30.01,55.38-52.51,77.88
		c-22.5,22.5-48.7,40.17-77.88,52.51C315.16,488.52,283.08,495,250,495s-65.16-6.48-95.36-19.25
		c-29.17-12.34-55.38-30.01-77.88-52.51c-22.5-22.5-40.17-48.7-52.51-77.88C11.48,315.16,5,283.08,5,250s6.48-65.16,19.25-95.36
		c12.34-29.17,30.01-55.38,52.51-77.88c22.5-22.5,48.7-40.17,77.88-52.51C184.84,11.48,216.92,5,250,5 M250,3
		C113.59,3,3,113.59,3,250s110.59,247,247,247s247-110.59,247-247S386.41,3,250,3L250,3z"/>
</g>
</svg>
